<svg width="14" height="14" viewBox="0 0 14 14" fill="none" xmlns="http://www.w3.org/2000/svg">
<path d="M8.41416 12.7007C8.29832 12.7296 8.1816 12.7549 8.06419 12.7765C7.75879 12.8333 7.55689 13.1271 7.61338 13.4327C7.64005 13.5773 7.72237 13.7056 7.84264 13.7901C7.9039 13.8334 7.97321 13.864 8.04649 13.88C8.11976 13.896 8.1955 13.8972 8.26923 13.8834C8.40909 13.8575 8.54813 13.8273 8.68616 13.7929C8.98774 13.7178 9.17146 13.4123 9.09623 13.1109C9.02117 12.8092 8.71592 12.6256 8.41416 12.7007ZM12.5761 5.15699C12.6139 5.27133 12.6874 5.37049 12.7859 5.43982C12.9268 5.5391 13.1113 5.5725 13.2873 5.5143C13.5824 5.41631 13.7423 5.09809 13.6447 4.80314C13.6 4.66812 13.5512 4.5345 13.4983 4.40246C13.3828 4.11385 13.0555 3.97334 12.7667 4.08878C12.4783 4.20416 12.3377 4.53162 12.4532 4.82032C12.4976 4.93126 12.5386 5.04354 12.5761 5.15699ZM10.243 11.8972C10.1433 11.963 10.0415 12.0259 9.938 12.0856C9.66869 12.2409 9.57645 12.5852 9.73174 12.8544C9.77243 12.9251 9.82805 12.9861 9.89473 13.0332C10.0683 13.1553 10.3041 13.1736 10.5004 13.0605C10.6237 12.9895 10.7447 12.9147 10.8634 12.8363C11.1227 12.665 11.194 12.3158 11.0227 12.0565C10.8513 11.797 10.5023 11.7258 10.243 11.8972ZM13.9946 6.72889C13.9824 6.41825 13.7207 6.17647 13.41 6.1886C13.0997 6.20085 12.8577 6.46258 12.8699 6.7731C12.8746 6.89182 12.8758 7.01232 12.873 7.13092C12.8687 7.32572 12.964 7.49937 13.112 7.60374C13.2033 7.66807 13.3117 7.70371 13.4233 7.70609C13.734 7.71298 13.9914 7.4666 13.9983 7.15581C14.0014 7.01409 14.0002 6.87051 13.9946 6.72889ZM12.4843 10.4166C12.2352 10.2297 11.8828 10.2804 11.6962 10.5291C11.6245 10.6246 11.5499 10.7179 11.4725 10.8089C11.2712 11.0454 11.2996 11.4007 11.5361 11.6022C11.5496 11.6137 11.5633 11.6242 11.5774 11.634C11.8126 11.7998 12.1394 11.7617 12.3295 11.5386C12.4219 11.43 12.511 11.3186 12.5966 11.2045C12.7832 10.9559 12.7327 10.6032 12.4843 10.4166ZM13.3116 8.3821C13.015 8.28911 12.6992 8.45421 12.6062 8.75079C12.5704 8.86483 12.5312 8.97777 12.4887 9.08945C12.3952 9.3349 12.4848 9.60497 12.69 9.74969C12.7285 9.77678 12.7702 9.79893 12.8142 9.8156C13.1046 9.92641 13.4297 9.78072 13.5404 9.49022C13.591 9.35738 13.6376 9.22308 13.6802 9.08749C13.7731 8.79085 13.6081 8.4751 13.3116 8.3821ZM5.95869 12.7816C5.45954 12.6923 4.97423 12.5381 4.51511 12.3228C4.50969 12.32 4.50485 12.3168 4.49916 12.3142C4.39097 12.2633 4.28429 12.2093 4.17925 12.1522C4.17889 12.1518 4.17823 12.1515 4.17766 12.1513C3.98473 12.045 3.7978 11.9282 3.61772 11.8014C0.970238 9.9364 0.333677 6.26522 2.19876 3.61777C2.60431 3.0423 3.0951 2.5622 3.64225 2.18169C3.64899 2.17699 3.65573 2.17233 3.66241 2.1676C5.59048 0.839107 8.2085 0.749576 10.2558 2.11473L9.81609 2.75005C9.69385 2.92689 9.76905 3.05575 9.98305 3.03649L11.8931 2.8655C12.1073 2.84624 12.2355 2.66088 12.1779 2.45395L11.665 0.605965C11.6075 0.398794 11.4605 0.373996 11.3382 0.550801L10.8974 1.18763C9.39498 0.179073 7.59294 -0.205506 5.80433 0.104649C5.62529 0.135715 5.44751 0.173662 5.27139 0.218407C5.27003 0.218647 5.26895 0.218798 5.26787 0.219039C5.26109 0.220694 5.25423 0.222891 5.24764 0.224726C3.70529 0.620801 2.35961 1.52036 1.39939 2.80383C1.39129 2.81343 1.38296 2.82282 1.37531 2.83326C1.34323 2.87655 1.31168 2.92022 1.28066 2.96427C1.22972 3.03662 1.18018 3.10994 1.13206 3.1842C1.12607 3.19311 1.12149 3.20216 1.11626 3.21116C0.323867 4.43905 -0.0583347 5.85861 0.00721129 7.30381C0.00736176 7.30857 0.00709091 7.31335 0.00721129 7.31823C0.0137147 7.46027 0.0246343 7.60208 0.0399542 7.74344C0.0407667 7.75253 0.0427831 7.76113 0.0443179 7.77022C0.0599658 7.9127 0.0800184 8.05467 0.104447 8.19591C0.355556 9.6446 1.03894 10.9482 2.06297 11.9625C2.06535 11.9649 2.06782 11.9675 2.07023 11.97C2.07107 11.9709 2.072 11.9714 2.07281 11.9723C2.35056 12.2463 2.65045 12.4969 2.96942 12.7216C3.81267 13.3158 4.75165 13.7085 5.76006 13.8895C6.06603 13.9445 6.35831 13.7408 6.4132 13.435C6.46807 13.1289 6.26457 12.8364 5.95869 12.7816Z" fill="#75748E"/>
<path d="M6.65452 2.45312C6.40284 2.45312 6.19897 2.65717 6.19897 2.90849V7.44515L10.3481 9.59002C10.4126 9.62347 10.4841 9.64091 10.5568 9.64088C10.7216 9.64088 10.8807 9.55114 10.9617 9.39456C11.0771 9.17108 10.9897 8.89653 10.7662 8.78111L7.10955 6.89063V2.90849C7.10952 2.65717 6.9059 2.45312 6.65452 2.45312Z" fill="#75748E"/>
</svg>
