<svg width="60" height="36" viewBox="0 0 60 36" fill="none" xmlns="http://www.w3.org/2000/svg">
<g clip-path="url(#clip0_463_7188)">
<path d="M30.3438 4.74561H32.897L34.3699 5.13585L35.9411 5.91635L36.9231 6.69685L37.9051 7.67247L38.7889 9.03834L39.3781 10.5018L39.5745 11.1847V11.7701L39.3781 11.3798L38.8871 10.014L38.1015 8.74566L37.2177 7.77003L36.3339 6.98954L35.3519 6.40416L33.9771 5.91635L32.897 5.72123L31.3258 11.9652L31.0312 12.7457L29.6564 12.6481L29.7546 11.8676L31.3258 5.62367L29.6564 6.01391L28.2816 6.59929L27.2996 7.28222L26.3176 8.16028L25.3356 9.52615L24.8446 10.5993L24.55 11.6725L25.1392 12.0628L26.8086 12.5506L28.5762 12.8433L31.3258 13.0384H34.4681L36.9231 12.8433L38.1997 12.7457L37.9051 12.9408L35.8429 13.6238L33.879 14.014L31.8168 14.2091H30.6384L30.5402 14.9896L30.442 15.8677L32.897 15.7701L35.2537 15.3799L37.6105 14.5994L38.0033 14.5018V15.3799L37.2177 21.819L35.8429 33.3313L35.7447 33.7216L36.2357 33.4289L38.1997 22.2092L39.1817 16.5506H39.2799L39.1817 18.1116L39.0835 18.9897L38.9853 19.1848L39.7709 18.8921H40.9493L41.9313 19.1848L42.7169 19.5751L43.1097 19.6726L44.2881 19.1848L44.6809 19.0873H46.7431L47.8233 19.4775L46.6449 16.3555V16.0628L44.3863 16.3555H43.4043L42.0295 14.5994L41.7349 14.2091V13.7213L44.2881 10.2091L44.4845 10.014L45.1719 10.1115L46.6449 10.892L48.2161 12.0628L49.1981 12.9408L50.1801 13.9165L51.1621 15.1848L51.9477 16.4531L52.7333 18.4043L53.0279 19.8678V22.0141L52.4387 22.8922L51.5549 23.8678L50.3765 24.7459L48.9035 25.4288L47.3323 25.819H45.2701L43.8953 25.5264L43.2079 26.3069L42.3241 26.8922L41.2439 27.2825H39.5745L38.3961 26.8922L38.1015 26.6971V27.5752L37.4141 33.3313L37.2177 34.1118L36.8249 34.6972L36.1375 35.2826L35.0573 35.7704L33.4862 36.1606L32.7988 36.2582H30.3438L28.6744 35.9655L27.496 35.5753L26.6122 35.0875L26.023 34.5997L25.6302 33.9167L25.4338 32.6484L24.9428 27.8679V26.8922L23.6662 27.2825H22.095L21.113 26.9898L20.3274 26.502L19.7382 26.0142L19.4436 25.6239L18.5598 25.7215L17.9706 25.819H15.9084L14.0426 25.3312L12.766 24.6483L11.784 23.8678L10.802 22.8922L10.311 22.2092L10.2128 21.5263V20.258L10.5074 18.5994L11.0966 16.9409L12.1768 15.0872L13.257 13.8189L14.1408 12.8433L15.5156 11.6725L16.9886 10.6969L18.2652 10.014H18.8544L20.2292 11.8676L21.2112 13.2335L21.604 13.8189L21.5058 14.2091L20.622 15.3799L19.8364 16.3555H18.9526L17.2832 16.1604H16.694L15.6138 19.0873V19.3799L16.5958 19.0873H18.5598L19.8364 19.4775L20.4256 19.6726L21.604 19.0873L22.2914 18.8921H23.568L24.1572 19.0873L23.9608 17.8189L23.4698 12.8433V12.0628L23.9608 10.2091L24.6482 8.6481L25.532 7.47735L26.6122 6.40416L27.987 5.5261L29.1654 5.03829L30.3438 4.74561Z" fill="#212532"/>
<path d="M24.55 13.2336L26.2194 13.6239L29.1654 14.1117L29.0672 14.9898L28.8708 15.8678H30.1474H30.442L32.897 15.7703L35.2538 15.38L37.6105 14.5995L38.0033 14.502V15.38L37.2177 21.8191L35.843 33.3315V33.8193L34.6646 34.2095L33.4862 34.4046L32.3078 34.5022H30.5402L28.7726 34.3071L27.496 33.9168L26.9068 33.429L25.1392 18.7947L24.6482 14.502L24.55 14.1117V13.2336Z" fill="#25B974"/>
<path d="M44.7791 10.8918L45.3683 11.087L46.6449 11.8675L47.9215 12.8431L49.1981 14.0138L50.0819 15.087L50.9657 16.3553L51.7513 18.0139L52.1441 19.2822L52.2423 19.8676V21.8188L51.5549 22.6969L50.7693 23.4774L49.3945 24.3554L48.1179 24.8432L47.0377 25.0384H45.4665L43.8953 24.6481H43.5025L42.9133 25.4286L42.1277 26.1116L41.4403 26.4042L40.9493 26.5018H39.7709L38.9853 26.2091L38.3961 25.8189L38.2979 25.7213V24.9408L38.6907 24.453L39.9673 23.8676L41.9313 23.4774L45.1719 23.0871L46.7431 22.5018L47.4305 22.0139L45.6629 22.5018L44.9755 22.5993L42.1277 22.6969L40.1637 22.892L38.5925 23.3798V22.5018L38.7889 20.6481L38.9853 20.1603L39.9673 19.77H41.1457L42.1277 20.1603L42.2259 20.4529L41.9313 21.331L41.8331 21.8188H42.0295L42.2259 21.4286L43.2079 20.5505L44.4845 19.9651L44.8773 19.8676H46.5467L47.4305 20.1603L48.1179 20.5505L48.5107 20.8432L49.0017 20.7456L48.8053 19.8676L47.1359 15.3797L46.6449 15.2821L44.2881 15.5748H43.7971L43.5025 15.1846L43.6989 14.7943L44.3863 14.0138L44.5827 13.8187L45.4665 13.9163L44.5827 12.7455L42.9133 14.4041L42.6187 14.0138L42.8151 13.526L43.7971 12.2577L44.7791 10.8918Z" fill="#09BE24"/>
<path d="M18.2652 10.8918H18.5598L19.3454 12.0626L20.3274 13.3309L20.622 13.8187L20.5238 14.209H20.131L19.9346 13.8187L19.5418 13.6236L18.8544 12.8431L18.4616 13.0382L17.7742 13.9163L18.7562 13.8187L19.5418 14.6968V14.8919L19.8364 14.9895L19.5418 15.4773L19.4436 15.5748L18.167 15.4773L16.3994 15.2821L16.1048 15.5748L15.0246 18.4041L14.3372 20.2578V20.8432H14.8282L15.6138 20.2578L16.694 19.8676H18.3634L19.5418 20.2578L20.5238 20.9408L21.0148 21.4286L21.4076 21.7213L21.113 20.5505L21.0148 20.2578L21.8004 19.8676L22.095 19.77H23.2734L24.1572 20.0627L24.2554 20.1603L24.4518 22.1115V23.1847L23.7644 23.0871L22.6842 22.7944L21.2112 22.6969L18.2652 22.5993L16.7922 22.3066L15.9084 22.0139L16.7922 22.5993L17.7742 22.9896L19.7382 23.2823L21.9968 23.5749L23.568 23.9652L24.55 24.453L24.7464 24.7457V25.9164L24.1572 26.3067L23.4698 26.5018H22.2914L21.2112 26.1116L20.4256 25.5262L20.0328 25.0384L19.7382 24.6481L19.0508 24.7457L17.676 25.0384H16.3994L14.8282 24.7457L13.9444 24.3554L12.9624 23.7701L12.1768 23.1847L11.1948 22.1115L10.9984 21.2334L11.0966 19.5749L11.4894 18.1115L12.3732 16.2578L13.3552 14.8919L14.4354 13.7212L15.3192 12.8431L16.8904 11.6723L18.2652 10.8918Z" fill="#09BE24"/>
<path d="M39.9673 19.7703H41.1457L42.1277 20.1605L42.2259 20.4532L41.9313 21.3313L41.8331 21.8191H42.0295L42.1277 21.6239L42.2259 22.1118L42.3241 22.2093L43.4043 21.2337L44.5827 20.6483L45.4665 20.4532L46.4485 20.5508L47.6269 20.941L48.8053 21.6239L50.0819 22.6971L50.6711 23.3801L50.1801 23.8679L49.1981 24.4533L48.1179 24.8435L47.0377 25.0386H45.4665L43.8953 24.6484H43.5025L42.9133 25.4289L42.1277 26.1118L41.4403 26.4045L40.9493 26.5021H39.7709L38.9853 26.2094L38.3961 25.8191L38.2979 25.7216V24.9411L38.6907 24.4533L39.9673 23.8679L41.9313 23.4776L45.1719 23.0874L46.7431 22.502L47.4305 22.0142L45.6629 22.502L44.9755 22.5996L42.1277 22.6971L40.1637 22.8923L38.5925 23.3801V22.502L38.7889 20.6483L38.9853 20.1605L39.9673 19.7703Z" fill="#25B974"/>
<path d="M22.0949 19.7703H23.2733L24.1571 20.063L24.2553 20.1605L24.4517 22.1118V23.1849L23.7643 23.0874L22.6841 22.7947L21.2112 22.6971L18.2652 22.5996L16.7922 22.3069L15.9084 22.0142L16.7922 22.5996L17.7742 22.9898L19.7382 23.2825L21.9967 23.5752L23.5679 23.9654L24.5499 24.4533L24.7463 24.7459V25.9167L24.1571 26.3069L23.4697 26.5021H22.2913L21.2112 26.1118L20.4256 25.5264L20.0328 25.0386L19.7382 24.6484L19.0508 24.7459L17.676 25.0386H16.3994L14.8282 24.7459L13.9444 24.3557L12.9624 23.7703L12.5696 23.3801L13.9444 22.0142L15.3192 21.1361L16.1048 20.7459L17.4796 20.4532L18.3634 20.5508L19.3454 20.941L20.3274 21.6239L21.0148 22.3069V21.5264L21.4076 21.7215L21.113 20.5508L21.0148 20.2581L21.8003 19.8678L22.0949 19.7703Z" fill="#25B974"/>
<path d="M34.468 -0.522949H35.8428L36.7266 0.0624242L38.1014 1.23317L39.1816 2.11123L40.6546 3.28198L40.5564 3.76979L40.0654 4.35516L39.6726 4.45272L38.396 3.37954L37.0212 2.30636L35.7446 1.23317L35.45 1.03805H34.6644L34.0752 1.4283L33.6824 2.6966L33.2896 4.06248L31.8167 3.96491L32.2094 2.30636L32.6022 0.940484L33.2896 0.0624242L33.8788 -0.327825L34.468 -0.522949Z" fill="#212532"/>
<path d="M16.3993 14.4043L17.3813 14.697L18.6579 15.1848H19.1489L19.5417 14.7945L19.8363 15.0872L19.4435 15.575L18.1669 15.4775L16.3993 15.2824L16.1047 15.575L15.0245 18.4043L14.3372 20.258V20.8434H14.8281L15.6137 20.258L16.6939 19.8678H18.3633L19.5417 20.258L20.5237 20.941L21.0147 21.4288L21.1129 22.4044L20.4255 21.819L19.5417 21.1361L18.7561 20.7458L17.9705 20.5507L16.7921 20.6483L15.6137 21.0385L14.239 21.9166L13.257 22.7947L12.5696 23.4776L12.1768 23.1849L12.3732 22.7947L13.257 21.9166L13.6498 21.0385L13.8462 19.2824L14.3372 17.6239L15.2209 15.7702L16.2029 14.5019L16.3993 14.4043Z" fill="#F8F8F9"/>
<path d="M46.6449 14.4043L47.0377 14.5019L47.8233 15.3799L48.8053 17.2336L49.1981 18.3068L49.4927 19.7702L49.6891 21.2337L50.1801 22.2093H50.3765V22.4044L50.7693 22.5995L51.1621 23.0873L50.6711 23.4776L49.7873 22.502L48.8053 21.7215L47.4305 20.941L45.8593 20.5507L44.8773 20.6483L43.6989 21.1361L42.6187 22.0142L42.1277 22.4044L42.2259 21.4288L43.2079 20.5507L44.4845 19.9653L44.8773 19.8678H46.5467L47.4305 20.1605L48.1179 20.5507L48.5107 20.8434L49.0017 20.7458L48.8053 19.8678L47.1359 15.3799L46.6449 15.2824L44.2881 15.575H43.7971L43.5025 15.1848L43.6989 14.7945L44.1899 15.1848L44.8773 15.0872L46.6449 14.4043Z" fill="#F7F8F8"/>
<path d="M26.9067 21.5264L27.2013 21.6239L27.4959 23.1849L28.2815 28.746L28.4779 30.9899V32.0631L28.3797 32.3558L27.8887 32.2582L27.4959 30.4045L27.1031 26.5996L26.8085 23.0874V21.6239L26.9067 21.5264Z" fill="#FDFDFD"/>
<path d="M24.55 13.2336L26.2194 13.6239L29.1654 14.1117L29.0672 14.9898L28.7726 15.7703L27.6924 15.6727L26.2194 15.2824L24.6482 14.502L24.55 14.1117V13.2336Z" fill="#F9FAFB"/>
<path d="M47.4305 22.5994L47.7251 22.6969L46.8413 23.2823L45.2701 23.7701L41.1457 24.3555L39.5745 24.8433L38.6907 25.4287L38.2979 25.7214V24.9409L38.6907 24.453L39.9673 23.8677L41.9313 23.4774L44.2881 23.1847L46.1539 22.9896L47.4305 22.5994Z" fill="#F7F8F9"/>
<path d="M15.6138 22.5994L17.185 22.9896L17.676 23.0872L19.7382 23.2823L21.9967 23.575L23.5679 23.9652L24.5499 24.453L24.7463 24.7457V25.4287L22.9787 24.5506L21.604 24.2579L18.0688 23.7701L16.9886 23.4774L15.8102 22.8921L15.6138 22.5994Z" fill="#F7F8F9"/>
<path d="M24.4518 14.4043L24.7464 14.5019L25.3356 19.5751L26.4158 28.4533L27.005 33.4289L27.496 33.8192L28.7726 34.2094L30.5402 34.4046H32.3078L34.1735 34.2094L35.8429 33.8192L35.7447 34.1119L34.2717 34.5021L33.1916 34.5997H29.6564L28.2816 34.4046L27.1032 33.9167L26.8086 33.7216L26.7104 33.4289L26.514 31.3801L26.2194 29.4289L26.023 27.1849L25.9248 26.8923L25.6302 23.9654L25.4338 23.2825V22.2093L24.55 15.4775L24.4518 15.1848V14.4043Z" fill="#122D15"/>
<path d="M46.6448 14.697H46.9394V14.8921L47.3322 15.0873L47.725 15.5751V15.6726L48.1178 16.258L48.5106 17.0385L48.6088 17.5263L48.8052 17.819L49.198 19.2824L49.2962 19.6727L49.3944 20.5508L49.4926 21.1361L49.7872 22.1118L49.3944 21.9166V21.7215L48.8052 21.5264V21.3313H48.6088V21.1361L48.1178 21.0386V20.8434H48.9034L49.0016 20.4532L48.1178 18.0141L47.1358 15.38L46.6448 15.2824L45.8592 15.38H44.7791V15.2824L45.3683 15.0873L46.6448 14.697Z" fill="#F7F8F9"/>
<path d="M37.8069 14.2092H38.2979L38.3961 14.5995L38.1997 15.4775L38.0033 16.7458V17.819L37.9051 17.9166V18.502H37.7087L37.6105 20.1605L37.4141 21.7215L37.3159 21.9166L37.1195 24.1606L36.9231 25.3313L36.8249 26.6972L36.7267 27.0874L36.6285 28.6484L36.4321 29.5265L36.2357 31.5753L36.1375 32.3558V33.3314V33.6241L35.7447 33.7217L35.9411 31.6729L37.6105 17.7215L38.0033 14.5019L36.5303 15.0873L35.5483 15.38H35.2537V15.1849L36.3339 14.7946L36.8249 14.697L37.8069 14.3068V14.2092Z" fill="#F0FCE7"/>
<path d="M46.6448 14.4043L47.0376 14.5019L47.8232 15.3799L48.8052 17.2336L49.198 18.3068L49.4926 19.7702L49.689 21.2337L50.18 22.2093H50.3764V22.4044L50.7692 22.5995L51.162 23.0873L50.671 23.4776L49.7872 22.502L48.8052 21.7215L48.0196 21.2337L48.1178 21.0385L48.6088 21.1361V21.3312H48.8052V21.5263L49.198 21.6239L49.3944 21.7215V21.9166H49.689L49.2962 20.941V20.0629L49.198 19.5751L49.2962 19.38L49.0998 19.2824L48.707 17.819L48.5106 17.6239L48.3142 16.8434L47.8232 15.9653L47.4304 15.575V15.3799L46.9394 14.8921V14.697L45.3682 15.1848L45.0736 15.4775L43.797 15.575L43.5024 15.1848L43.6988 14.7945L44.1898 15.1848L44.8772 15.0872L46.6448 14.4043Z" fill="#F1FBEA"/>
<path d="M16.3993 14.4043L17.3813 14.697L18.6579 15.1848H19.1489L19.5417 14.7945L19.8363 15.0872L19.4435 15.575L18.1669 15.4775L18.3633 15.2824L16.7921 14.7945L16.3993 14.697L15.9083 15.3799L15.7119 15.4775L15.5155 15.9653H15.3191L15.1227 16.7458L14.8281 17.0385L14.4354 18.2092V18.8922L14.1408 19.7702H13.9444V20.941L13.6498 22.0142L14.4354 21.5263L14.6317 21.6239L13.6498 22.4044L12.5696 23.4776L12.1768 23.1849L12.3732 22.7947L13.257 21.9166L13.6498 21.0385L13.8462 19.2824L14.3372 17.6239L15.2209 15.7702L16.2029 14.5019L16.3993 14.4043Z" fill="#F1FDE8"/>
<path d="M28.9689 6.79419L29.4599 6.89175V7.47713L28.8707 8.35519L28.0851 9.13568H27.7905V9.33081L27.3977 9.52593H26.8085L26.7103 9.13568L27.1031 8.35519L27.9869 7.37956L28.3797 7.08688H28.6743L28.7725 6.89175L28.9689 6.79419Z" fill="#D9FFED"/>
<path d="M26.9067 21.5264L27.2013 21.6239L27.4959 23.1849L28.2815 28.746L28.4779 30.9899V32.0631L28.3797 32.3558L27.8887 32.2582L27.4959 30.4045L27.1031 26.5996L26.8085 23.0874V21.6239L26.9067 21.5264ZM27.0049 22.0142L26.9067 22.7947L27.0049 23.2825L27.2995 27.2825L27.5941 30.1118L27.8887 31.7704L27.9869 31.9655H28.2815V29.9167L28.0851 28.8435L27.7905 26.4045L27.4959 24.1605L27.2995 22.5996L27.1031 22.0142H27.0049Z" fill="#F1FDE8"/>
<path d="M12.5696 23.4775L13.257 23.8678L14.3372 24.4532L15.6138 24.8434L16.3994 24.941H17.676L19.0508 24.6483L19.7382 24.5507L20.131 25.0385L20.7202 25.7215L21.8986 26.3068L22.2913 26.4044H23.4697L24.3535 26.1117L24.6481 25.9166L24.7463 25.4288L25.0409 25.7215L24.8445 26.1117L24.0589 26.5995L23.3715 26.7947L21.9967 26.6971L21.7022 26.5995V26.4044L21.113 26.3068L20.4256 25.819V25.6239L20.131 25.5263L19.7382 24.941V24.7458L18.8544 25.0385L18.658 25.1361L15.9084 25.2337L14.8282 24.941L13.5516 24.3556L12.6678 23.7702L12.5696 23.4775Z" fill="#122E15"/>
<path d="M38.6907 20.8433H38.7889L38.6907 23.2823L40.1637 22.7945L42.1277 22.5994L44.9755 22.5018L46.4485 22.2091L47.5287 21.9164L47.0377 22.4043L46.0557 22.8921L45.1719 23.1848H44.5827L44.6809 22.9896L45.3683 22.7945L41.5385 22.8921L39.9673 23.0872L39.3781 23.3799H39.1817L39.0835 23.575H38.4943L38.3961 23.4774L38.4943 22.014L38.5925 21.3311L38.3961 21.2335H38.5925L38.6907 20.8433Z" fill="#122E15"/>
<path d="M16.6939 19.8677H18.3633L19.5417 20.2579L20.5237 20.9409L20.8183 21.136L20.7201 21.6238L20.6219 21.4287H20.3273V21.2335L19.8363 21.0384L19.5417 20.9409L19.4435 20.7457L18.4615 20.3555H17.1849L16.3011 20.453L16.2029 20.6482L15.5155 20.7457L15.4173 21.0384L14.8281 21.136L15.4173 20.3555L16.3011 19.9652L16.6939 19.8677Z" fill="#F7F7F9"/>
<path d="M50.5729 23.4775H50.7693L50.6711 23.8678L49.5909 24.4532L48.7071 24.8434L47.8233 25.1361H44.9755L44.0917 24.8434H43.6007V25.1361L43.2079 25.2337L43.0115 25.6239H42.8151V25.819H42.6187V26.0142L41.8331 26.4044L41.3421 26.5995L40.7529 26.6971H39.6727L38.6907 26.3068L38.2979 25.9166H38.5925L39.3781 26.3068L39.7709 26.4044H40.9493L41.9313 26.1117L42.7169 25.5263L43.3061 24.8434L43.5025 24.5507L44.1899 24.6483L45.4665 24.941H47.0377L48.4125 24.6483L49.5909 24.1605L50.5729 23.4775Z" fill="#122E15"/>
<path d="M16.1048 11.8677H16.5958L16.1048 12.3555L15.0246 13.2335L13.748 14.5019L12.6678 15.9653L11.784 17.6238L11.293 19.0873L11.0966 20.4532V21.2337L11.293 22.1117L11.9804 22.8922H11.6858L11.293 22.502L10.9002 21.9166V19.9653L11.293 18.0141L12.1768 16.258L12.766 15.3799L13.0606 14.8921L13.5516 14.4043L13.8462 14.014H14.0426L14.239 13.6238L15.5156 12.453L16.0066 12.0628L16.1048 11.8677Z" fill="#122E15"/>
<path d="M39.9673 19.7703H41.1457L42.1277 20.1605L42.2259 20.4532L42.1277 20.6483L41.7349 20.5508H40.2619L39.0835 21.0386L38.7889 21.1361L38.8871 20.2581L39.5745 19.8678L39.9673 19.7703Z" fill="#F5F6F8"/>
<path d="M22.0948 19.7703H23.2732L24.157 20.063L24.2552 20.1605L24.3534 20.941L24.157 21.0386L23.3714 20.6483L22.9786 20.5508H21.6038L21.211 20.6483L21.0146 20.2581L21.8002 19.8678L22.0948 19.7703Z" fill="#F5F6F8"/>
<path d="M17.1849 20.2581H18.4615L19.5417 20.7459V20.941L20.0327 21.0386L20.3273 21.2337V21.4288L20.7201 21.5264L20.9165 21.2337L21.1129 21.8191V22.4044L20.4255 21.8191L19.5417 21.1361L18.7561 20.7459L17.9705 20.5507L16.7921 20.6483L15.6138 21.0386L14.8282 21.5264H14.6318L14.73 21.0386L14.3372 20.941L14.9264 20.7459H15.221L14.9264 21.0386L15.4174 20.941L15.712 20.6483L17.1849 20.2581Z" fill="#F0FCE8"/>
<path d="M15.8101 21.9165L16.7921 22.2092L18.2651 22.5019L21.2111 22.5994L22.6841 22.697L24.2553 23.1848V23.2824L23.3715 23.1848L22.3895 22.9897L18.7561 22.7946L17.5777 22.697L17.7741 22.9897L17.1849 22.8921L16.1047 22.3068L15.8101 21.9165Z" fill="#122D15"/>
<path d="M26.3176 17.0383L26.7104 17.2335L27.005 18.4042V19.6725L26.8086 19.9652L26.4158 19.8676L26.2194 19.5749V17.1359L26.3176 17.0383Z" fill="#FDFDFD"/>
<path d="M13.6498 21.3311L13.748 21.7213L13.6498 22.014L14.4354 21.5262L14.6317 21.6237L13.6498 22.4042L12.5696 23.4774L12.1768 23.1847L12.3732 22.7945L13.257 21.9164L13.6498 21.3311Z" fill="#F0FBE8"/>
<path d="M46.6448 14.4043L47.0376 14.5019L47.8232 15.3799L47.725 15.575L47.234 15.0872L46.9394 14.8921V14.697L45.3682 15.1848L45.0736 15.4775L43.797 15.575L43.5024 15.1848L43.6988 14.7945L44.1898 15.1848L44.8772 15.0872L46.6448 14.4043ZM47.4304 15.575L47.725 15.6726H47.4304V15.575Z" fill="#F1FDE8"/>
<path d="M47.725 15.575H47.9214L48.8052 17.2335L49.198 18.3067L49.4926 19.7701L49.689 21.4287L49.3944 21.136L49.2962 20.5506L49.198 19.575L49.2962 19.3799L49.0998 19.2823L48.707 17.8189L48.5106 17.6238L48.3142 16.8433L47.8232 15.9652L47.725 15.575Z" fill="#F0FCE7"/>
<path d="M16.3994 14.4043L17.3814 14.697L18.658 15.1848H19.149L19.5417 14.7945L19.8363 15.0872L19.4436 15.575L18.167 15.4775L18.3634 15.2824L16.7922 14.7945L16.3994 14.697L15.9084 15.3799L15.5156 15.4775L15.8102 14.9897L16.203 14.5019L16.3994 14.4043Z" fill="#F1FDE8"/>
<path d="M18.2651 10.8918H18.5597L19.3453 12.0626L20.3273 13.3309L20.6219 13.8187L20.5237 14.209H20.1309L19.9345 13.8187L19.8363 13.2333L19.4435 12.648L18.6579 11.5748L18.0687 11.1845L18.2651 10.8918Z" fill="#EDF6EA"/>
<path d="M44.779 10.8918L45.1718 10.9894V11.1845L44.5826 11.5748L43.5024 13.1358L43.2079 14.209L42.9133 14.4041L42.6187 14.0138L42.8151 13.526L43.797 12.2577L44.779 10.8918Z" fill="#ECF7E8"/>
<path d="M19.6399 23.7703L20.6219 23.8678L21.8003 23.9654L22.6841 24.2581L23.5679 24.4532L24.5499 24.941L24.7463 24.7459V25.4288L22.9787 24.5508L21.6039 24.2581L19.6399 23.9654V23.7703Z" fill="#F0FCE7"/>
<path d="M47.4304 22.5994L47.725 22.6969L46.8412 23.2823L45.27 23.7701H44.6808L44.9754 23.6725V23.4774L45.1718 23.3799V23.1847L47.234 22.6969L47.4304 22.5994Z" fill="#F2FCEA"/>
<path d="M48.9034 13.7214L49.2962 13.9166L50.0818 14.7946L51.0638 16.1605V16.3556L51.3584 16.4532L51.653 17.4288L52.0458 18.502L51.9476 18.8922L51.3584 17.3312L50.5728 15.8678L49.5908 14.5995L48.9034 13.819V13.7214Z" fill="#122E15"/>
<path d="M15.6138 22.5994L17.185 22.9896L17.676 23.0872L17.3814 23.2823L18.3634 23.575L19.3454 23.6725L19.2472 23.8677H18.5598L16.9886 23.4774L15.8102 22.8921L15.6138 22.5994Z" fill="#F0FCE7"/>
<path d="M43.6989 23.6726L44.6809 23.7702V23.8677L41.1457 24.3555L39.8691 24.6482L39.7709 24.4531L40.4583 24.1604L42.9133 23.8677L43.6989 23.6726Z" fill="#F1FDE8"/>
<path d="M21.3092 20.0627L21.8002 20.1603L23.175 20.2579L23.7642 20.453V20.6481L24.2552 20.7457V21.0384L22.9786 20.5506H21.6038L21.211 20.6481L21.0146 20.2579L21.3092 20.0627Z" fill="#EEF9E9"/>
<path d="M18.6579 12.7456L19.0507 12.9407L19.8363 13.8188H19.5417L19.0507 13.2334L18.8543 13.1359V12.9407L18.4615 13.331L18.2651 13.6237L18.1669 13.7212H18.8543L19.6399 14.5993L19.5417 14.892L18.7561 13.9164L17.6759 14.0139L18.2651 13.2334L18.6579 12.7456Z" fill="#122F15"/>
<path d="M40.7529 20.1604H41.6367L42.0295 20.258L42.1277 20.6482L41.7349 20.5506H40.2619L39.0835 21.0385L38.7889 21.136V20.6482L38.8871 20.8433L39.3781 20.6482V20.4531L40.1637 20.258L40.7529 20.1604Z" fill="#EDF9E7"/>
<path d="M34.2717 15.3799H35.2537V15.4774L32.8969 15.8677L30.3437 15.9653V15.7701L31.6203 15.6726L33.2897 15.575L33.7807 15.4774L34.2717 15.3799Z" fill="#F1FDE8"/>
<path d="M44.9755 20.2581H46.1539L46.7431 20.4532L47.2341 20.5507L47.4305 20.6483V20.8434L46.4485 20.6483L45.4665 20.5507L43.8953 20.941L44.1899 20.5507L44.7791 20.3556L44.9755 20.2581Z" fill="#F1FDE8"/>
<path d="M45.27 10.9897L45.761 11.0873L46.6448 11.5751L47.4304 12.1605L47.9214 12.6483L48.6088 13.2337L48.5106 13.4288L47.234 12.3556L45.8592 11.4776L45.27 11.0873V10.9897Z" fill="#122E15"/>
<path d="M46.6448 14.697H46.9394L47.0376 14.9897L46.9394 15.1848L45.8592 15.38H44.7791V15.2824L45.3683 15.0873L46.6448 14.697Z" fill="#F8F9FA"/>
<path d="M36.2356 30.0142H36.3338V30.6971L36.2356 31.7703L36.1374 32.3557V33.3313V33.624L35.7446 33.7215L35.941 31.6727L36.1374 30.1117L36.2356 30.0142Z" fill="#F1FDE8"/>
<path d="M44.4845 12.6479L44.9755 13.1358L45.5647 14.0138L44.5827 13.9163L43.9935 14.4041L44.0917 14.0138L44.2881 13.9163L44.1899 13.6236H44.9755L44.5827 13.2333V13.0382L44.1899 13.1358L44.3863 12.7455L44.4845 12.6479Z" fill="#122E15"/>
<path d="M25.9247 10.0137H26.3175L26.5139 10.4039V10.8917L26.0229 11.0869L25.6301 10.7942L25.7283 10.3064L25.9247 10.0137Z" fill="#D9FFED"/>
<path d="M16.3012 20.4529H16.7921V20.648L15.6138 21.0383L14.8282 21.5261H14.6318L14.73 21.0383L14.3372 20.9407L14.9264 20.7456H15.221L14.9264 21.0383L15.4174 20.9407L15.712 20.648L16.3012 20.4529Z" fill="#F1FDE8"/>
<path d="M37.6105 14.4043H37.8069V14.5994L35.9411 15.2824L35.2537 15.3799V15.1848L36.3339 14.7945L36.8249 14.697L37.6105 14.4043Z" fill="#F1FDE8"/>
<path d="M52.2422 19.9651H52.3404L52.4386 21.2334L52.2422 22.209L51.4566 23.0871L51.162 22.9895L52.0458 22.0139L52.144 21.8188L52.2422 19.9651Z" fill="#122E15"/>
<path d="M22.9788 24.3555L23.568 24.453L24.55 24.9408L24.7464 24.7457V25.4287L22.9788 24.5506V24.3555Z" fill="#EEF9E8"/>
<path d="M37.5122 19.2825H37.6104V20.1605L37.414 21.7215L37.3158 21.9167L37.1194 21.8191L37.414 19.38L37.5122 19.2825Z" fill="#F0FCE7"/>
<path d="M19.4435 14.7944L19.8363 14.9896L19.5417 15.4774L19.4435 15.5749L18.1669 15.4774V15.3798L19.1489 15.1847L19.4435 14.7944Z" fill="#ECF3EC"/>
<path d="M24.9427 14.5017L25.5319 14.5993L25.7283 14.7944L26.6121 15.0871L26.9067 15.3798L26.2193 15.2822L24.9427 14.6968V14.5017Z" fill="#F1FDE8"/>
<path d="M43.0115 21.2336L43.4043 21.3312L42.2259 22.4044L42.1277 22.1117L42.3241 21.5263L42.7169 21.6239L42.8151 21.4288L43.0115 21.3312V21.2336Z" fill="#F1FDE8"/>
<path d="M26.2194 18.5017H26.3176L26.4158 19.3798L26.6122 19.5749L26.8086 19.6725V18.892L27.005 18.6968V19.6725L26.8086 19.9651L26.4158 19.8676L26.2194 19.5749V18.5017Z" fill="#F1FDE8"/>
<path d="M26.3176 17.0383L26.7104 17.2335L27.005 18.5993L26.7104 18.4042L26.6122 17.7213L26.4158 17.5261L26.2194 17.8188V17.1359L26.3176 17.0383Z" fill="#F1FDE8"/>
<path d="M17.1849 20.2581H18.4615L18.3633 20.5507H16.7921L16.8903 20.3556L17.1849 20.2581Z" fill="#F1FDE9"/>
<path d="M39.3781 24.6484L39.6727 24.746L38.6907 25.4289L38.2979 25.7216V24.9411L38.3961 25.3314L38.8871 24.8436L39.3781 24.6484Z" fill="#EDF7E8"/>
<path d="M45.1718 23.1848L46.0556 23.3799V23.5751L45.27 23.7702H44.6808L44.9754 23.6726V23.4775L45.1718 23.3799V23.1848Z" fill="#F0FCE8"/>
<path d="M43.6988 14.7944L44.0916 15.0871V15.3798L44.3862 15.4774L44.288 15.5749H43.797L43.5024 15.1847L43.6988 14.7944Z" fill="#F0F4F2"/>
<path d="M21.0147 20.6482H21.2111L21.5057 21.6238L21.3093 21.8189L20.9165 21.4287L21.0147 20.6482Z" fill="#122D15"/>
<path d="M49.2962 19.4773L49.4926 19.77L49.689 21.4285L49.3944 21.1359L49.2962 20.5505L49.198 19.5749L49.2962 19.4773Z" fill="#F1FDE8"/>
<path d="M26.9067 15.3799H27.9869L28.7725 15.6726V15.7701L27.6923 15.6726L26.9067 15.4774V15.3799Z" fill="#F1FDE8"/>
<path d="M42.9133 13.4287L43.1097 13.5263L43.2079 14.2092L42.9133 14.4043L42.6187 14.0141L42.8151 13.5263L42.9133 13.4287Z" fill="#EFF1F4"/>
<path d="M20.2291 13.5261L20.5237 13.6237L20.6219 14.1115L20.2291 14.3066L20.0327 13.9164L20.2291 13.5261Z" fill="#F0F1F5"/>
<path d="M44.7791 10.8918L45.1719 10.9894V11.1845L44.5827 11.5748L44.2881 11.965L44.0917 11.8675L44.7791 10.8918Z" fill="#EDF6EA"/>
<path d="M35.941 32.5508H36.0392L36.1374 33.3313V33.624L35.7446 33.7215L35.8428 32.6483L35.941 32.5508Z" fill="#EEF7EA"/>
<path d="M42.0295 20.6482L42.2259 20.8433L42.3241 21.4287L42.1277 21.7214L41.8331 21.8189L41.9313 20.9409L42.0295 20.6482Z" fill="#132D16"/>
<path d="M27.0049 7.37988L27.2013 7.47745L26.4157 8.25794L26.3175 8.55063L25.9247 8.84332V8.55063L26.8085 7.57501L27.0049 7.37988Z" fill="#E6E9EF"/>
<path d="M45.0737 14.9895H45.3683L45.2701 15.2822L45.0737 15.4773H44.3863L44.0917 15.3798L44.1899 15.1846L44.8773 15.0871L45.0737 14.9895Z" fill="#EDF8E8"/>
<path d="M17.4795 10.8918H18.0687L18.1669 11.087L17.2831 11.5748L17.0867 11.4772L17.2831 10.9894L17.4795 10.8918Z" fill="#133115"/>
<path d="M15.0246 20.6482L15.221 20.7458L14.9264 21.0384L15.1228 21.136V21.3311L14.6318 21.5263L14.73 21.0384L14.3372 20.9409L14.9264 20.7458L15.0246 20.6482Z" fill="#EBF3EB"/>
<path d="M19.8363 12.8433L20.3273 13.3311L20.1309 13.9164L19.9345 14.014V13.4286L19.7381 12.9408L19.8363 12.8433Z" fill="#EAF3E8"/>
<path d="M13.4534 22.0142V22.3068L13.257 22.5995H13.0606L12.8642 22.9898L12.4714 23.0873L12.766 22.5995L13.4534 22.0142Z" fill="#FDFDFD"/>
</g>
<defs>
<clipPath id="clip0_463_7188">
<rect width="60" height="36" fill="white"/>
</clipPath>
</defs>
</svg>
