<svg width="60" height="38" viewBox="0 0 60 38" fill="none" xmlns="http://www.w3.org/2000/svg">
<g clip-path="url(#clip0_475_7773)">
<path d="M36.3 0.882324L36.675 0.956341L38.0625 1.43745L39.6375 2.02958L40.9875 2.51068L43.575 3.4729L44.0625 3.65794L44.2125 3.84298L44.25 4.17605L44.1375 4.43511L43.8375 4.62015L43.0875 4.87921H43.0125L43.05 6.47056L43.275 6.6556L43.4625 6.98867L43.65 7.76584V8.28396L43.5 8.58002L43.2375 8.80207L42.975 8.9131L42.7875 8.95011H42.45L42.1125 8.83908L41.775 8.54302L41.6625 8.32097L41.625 7.95088L41.775 7.0997L41.925 6.76662L42.225 6.47056L42.2625 5.21228L41.2125 5.61937L40.725 5.80441H40.6125L40.65 8.65404L41.025 8.72806L41.475 8.95011L41.775 9.28318L41.925 9.65326V11.6887L41.775 12.0218L41.5125 12.3178L41.175 12.5399L40.8375 12.6509L40.3875 12.7249L40.2375 14.4643L40.0875 16.4628L39.9375 18.1281L39.8625 19.1644L39.675 21.3478L39.5625 22.4581L39.4125 24.4195L39.225 26.677L39.1875 26.8251H39.525L40.5 26.9361L41.4375 27.1581L42.225 27.4172L42.7875 27.6762L43.3875 27.9723L43.95 28.3424L44.55 28.7865L45.0375 29.2306L45.3 29.4896L45.5625 29.7857L46.0125 30.3778L46.425 31.044L46.8 31.7471L47.1 32.4873L47.325 33.2645L47.475 34.1897L47.5125 34.6708V35.559L47.475 36.0401L47.2875 36.6322L47.0625 37.0393L46.725 37.4094L46.4625 37.6314L46.0125 37.8905L45.4875 38.0385L28.2 38.0755H14.775L14.325 37.8535L14.0625 37.5944L13.875 37.2243L13.8375 37.0763V34.1897L13.9875 33.7826L14.25 33.4865L14.625 33.2645L14.8875 33.1905L16.6875 33.1535V30.2298L16.8375 29.8597L17.1 29.5637L17.4 29.3786L17.775 29.2676L18 29.2306H21.2625L21.6375 29.3046V28.8235L21.525 27.6392L21.3 24.6786L21.15 22.8282L21 21.0148L20.8125 18.5722L20.475 14.1683L20.3625 12.6509H19.9125L19.575 12.5399L19.2375 12.3178L18.975 12.0218L18.825 11.6517L18.7875 11.5407V9.76429L18.9 9.3942L19.125 9.09814L19.3875 8.87609L19.725 8.72806L19.875 8.69105L24.975 8.65404L24.825 7.54379L24.525 5.50835L21.4875 4.17605L21.2625 3.91699L21.1875 3.73195V3.32486L21.3375 2.99179L21.6375 2.65872L21.9 2.54769H22.275L22.7625 2.73273L23.25 2.95478L24.225 3.36187L24.7875 3.62093L25.6875 4.02802L25.9875 4.25007L26.1375 4.47212L26.25 4.99023L26.4 6.06347L26.7 8.06191L26.775 8.69105H31.725L31.6875 8.61703V5.65638L31.3125 5.54535L30.3375 5.17527L29.5125 4.8422L29.025 4.65716L28.8 4.50912L28.6875 4.28708V3.954L28.8 3.73195L28.9875 3.58392L33.4875 1.91855L34.05 1.6965L34.6875 1.47445L35.175 1.28941L35.625 1.10437L36.1125 0.919332L36.3 0.882324Z" fill="#1B1919"/>
<path d="M21.3 12.6509H25.5375L25.6125 12.8729L25.875 14.6863L26.2125 17.0549L26.3625 18.0171L26.5875 19.5344H28.35L28.0875 17.647L27.9375 16.7588L27.675 14.9454L27.4125 13.206L27.3375 12.6879L27.375 12.6509H39.4125V13.132L39.2625 14.9454L39.225 15.2044L39.1125 16.7588L38.925 18.9053L38.625 22.458L38.55 23.3832L38.4 25.3077L38.2875 26.64L38.25 26.825L36.9 27.0471L36.375 27.1951L35.8125 27.3801L35.25 27.6022L34.5375 27.9723L33.8625 28.3794L33.3375 28.7864L32.8875 29.1935L32.3625 29.7116L31.875 30.3408L31.5 30.8959L31.2 31.414L30.8625 32.1542L30.6 32.9314L30.4125 33.7455L30.3375 34.2636L30.3 34.7818V35.781L30.375 36.1881L30.525 36.5952L30.75 37.0023L30.825 37.1503H24.7125L24.675 37.1133L24.6375 34.2636L24.5625 33.8936L24.375 33.5605L24.0375 33.3384L23.7 33.2274L22.9125 33.1904L22.8375 32.5243L22.5375 28.7124L22.3875 26.936L22.275 25.3447L22.05 22.31L21.825 19.5714L21.6375 17.3509L21.375 13.7981L21.3 12.9469V12.6509Z" fill="#FFBB5C"/>
<path d="M38.775 27.6763H39.15L40.275 27.7873L41.025 27.9353L41.8875 28.2314L42.6375 28.5645L43.3125 28.9716L43.7625 29.3046L44.2875 29.7487V29.8227L43.875 30.1558L43.4625 30.5259L43.1625 30.785L42.675 31.192L42.5625 31.2291L42.4875 31.3771L42.1875 31.6361L41.625 32.1172L41.1375 32.5243L40.6875 32.9314L40.275 33.2645L39.825 33.6716L39.5625 33.8936H39.4875V33.9677L39.3 33.9307L39 33.8566L38.5125 33.8936L38.0625 34.1157L37.7625 34.4488L37.6125 34.7448L37.575 34.8929V35.337L37.725 35.7441L37.95 36.0401L38.175 36.2252L38.5875 36.3732H39.1125L39.4875 36.2622L39.825 36.0401L40.0875 35.707L40.2 35.411V34.6708L42.5625 32.3393H42.6375V32.2653H42.7125V32.1913L43.0125 31.9322H43.1625L43.5375 32.4133L43.9125 33.0425L44.175 33.7086L44.325 34.3377L44.4375 35.2259L44.5125 35.3L46.6125 35.337L46.575 36.0031L46.425 36.4102L46.275 36.6322L46.0875 36.8173L45.7875 37.0393L45.3375 37.1874H32.5125L32.1375 37.1134L31.8 36.9283L31.575 36.7433L31.35 36.4102L31.1625 35.9291V35.3H33.3375L33.375 34.7448L33.5625 33.8566L33.7875 33.2645L34.0875 32.6724L34.4625 32.1172L34.95 31.5621L35.25 31.3031L35.025 31.044L34.35 30.3779L34.0875 30.0818L33.7875 29.8227L33.675 29.6747L34.125 29.2676L34.8 28.8235L35.4 28.4904L36.1875 28.1574L36.9 27.9353L37.875 27.7503L38.775 27.6763Z" fill="#F4F5FF"/>
<path d="M27.4125 12.688H37.2375L37.275 12.725L37.2375 13.6502L37.0875 15.5006L36.9375 17.314L36.75 19.4975L36.6375 19.5715H28.425L28.35 19.3125L28.275 18.9794L28.0875 17.6471L27.9375 16.7589L27.8625 16.2778L27.825 15.5746L27.525 13.5762L27.4125 12.947V12.688Z" fill="#F4F5FF"/>
<path d="M20.0625 9.54224H33.45L34.125 9.80129L34.7625 10.0233L35.2125 10.2084L36 10.5044H36.375L37.3125 10.1714L38.2875 9.80129L39 9.54224H40.7625L41.025 9.76429L41.0625 9.87531V10.4674L41.025 11.5037L40.8375 11.7257L40.7625 11.7627H19.9875L19.8 11.6517L19.725 11.5407L19.6875 9.87531L19.8 9.69027L19.95 9.57924L20.0625 9.54224Z" fill="#E8E8E8"/>
<path d="M21.3 12.6509H25.5375L25.6125 12.8729L25.875 14.6863L26.2125 17.0549L26.3625 18.0171L26.475 18.7942L26.5125 19.5714H22.65H22.275H22.096H22.0166H21.8689L21.9127 20.0756C21.9274 20.2924 21.9441 20.437 21.9617 20.6394L21.975 20.7927C21.9311 20.2868 21.9064 20.0032 21.8625 19.4974L21.7875 18.9423L21.7125 18.3131L21.375 13.7981L21.3 12.9469V12.6509Z" fill="white"/>
<path d="M36.3 1.73364L36.525 1.77065L37.425 2.10372L38.8125 2.62184L41.4375 3.58405L42.675 4.02815L42.825 4.13917L42.45 4.28721L40.9875 4.80532L40.575 4.99036L39.7125 5.28643L38.55 5.73053L37.6125 6.10061L36.45 6.5447L36.3 6.58171L35.475 6.24864L32.9625 5.28643L32.2125 5.02737L29.925 4.17618V4.10217L31.2375 3.65807L33.6 2.76987L34.2 2.54782L34.875 2.28877L35.625 2.02971L36.3 1.73364Z" fill="#5F68D2"/>
<path d="M17.2125 0.216309L17.85 0.290325L18.4125 0.475366L18.825 0.697415L19.35 1.14151L19.6125 1.47459L19.7625 1.73364L19.95 2.28877L20.025 2.80688L19.9875 3.325L19.8 3.91713L19.575 4.32422L19.125 4.80532L18.8625 5.10139L18.825 5.24942L18.7875 6.17462L18.5625 6.5077L18.3375 6.65573L18.225 6.69274L17.1 6.72975L16.125 6.69274L15.9 6.58171L15.675 6.32266L15.6 6.0636L15.5625 5.21241L15.4875 5.02737L15.1125 4.65729L14.8875 4.36122L14.625 3.91713L14.475 3.54704L14.4 2.95491L14.475 2.32577L14.7 1.73364L15.075 1.21553L15.375 0.919464L15.75 0.660407L16.35 0.364341L16.875 0.253317L17.2125 0.216309Z" fill="#F0ACB1"/>
<path d="M38.775 27.6763H39.15L40.275 27.7873L41.025 27.9353L41.8875 28.2314L42.6375 28.5645L43.3125 28.9716L43.7625 29.3046L44.2875 29.7487V29.8227L43.875 30.1558L43.4625 30.5259L43.1625 30.785L42.675 31.192L42.5625 31.2291L42.525 31.3401L42.225 31.118L41.7 30.785L41.1375 30.4889L40.35 30.2298L39.8625 30.1188L38.9625 30.0448H38.4375L37.6875 30.1558L37.05 30.3409L36.375 30.6369L35.775 30.97L35.3625 31.3031L35.2125 31.3771L35.25 31.2661L34.35 30.3779L34.0875 30.0818L33.7875 29.8227L33.675 29.6747L34.125 29.2676L34.8 28.8235L35.4 28.4904L36.1875 28.1574L36.9 27.9353L37.875 27.7503L38.775 27.6763Z" fill="#DFD99A"/>
<path d="M27.3 9.54224H33.45L34.125 9.80129L34.7625 10.0233L35.2125 10.2084L36 10.5044H36.375L37.3125 10.1714L38.2875 9.80129L39 9.54224H40.7625L41.025 9.76429V10.2824L40.9875 10.9115L32.1 10.9485H28.2375L27.15 10.9115L27.0375 10.4304L26.925 9.57924L27.3 9.54224Z" fill="#FAFCF9"/>
<path d="M28.35 19.3125H28.3875V19.6456L28.725 21.8291L28.875 22.8283L29.2125 25.1228L29.4 26.4181L29.475 26.8252L29.7375 28.6386L29.625 28.8236L29.55 28.7866L29.5875 28.7126L29.4375 28.7496L29.475 28.6386H29.325L29.3625 28.4535L29.25 28.3795V28.3055L28.9875 28.3795L28.9125 28.2685L28.9875 28.1575H28.9125V28.2315L28.8375 28.2685V28.1945L28.4625 28.2685V28.1945H28.3875L28.35 28.4535L28.2 28.6016L28.1625 28.4905L27.9375 28.4535L27.9 28.1945L28.0125 27.9724L27.9375 27.9354L27.975 27.8244L28.0875 27.8614L28.05 27.7134L27.975 27.6023V27.5283L27.8625 27.4543L27.7875 27.4173V27.3433L27.825 27.1952H27.75L27.5625 26.085L27.45 25.2708L27.3375 24.6787L27.2625 24.1606L27.1125 23.1984L27.0375 22.6802L26.7375 20.7928L26.7 20.3117L26.8125 20.2377L26.775 20.0527L26.925 20.0157V20.0897H27.0375L27.1125 20.0527L27.15 19.8676L27.075 19.6826L27.3375 19.6456L27.225 19.7566L27.375 19.8676L27.4125 19.7566H27.525L27.4125 19.7196V19.6456H28.2L26.55 19.6086L26.5875 19.5345H28.35V19.3125Z" fill="#ADC1CE"/>
<path d="M28.374 19.3384L26.543 19.4829L27.9053 28.7928H29.6631L28.374 19.3384Z" fill="#1B1919"/>
<path d="M15.022 33.9664C15.0818 33.9428 15.1455 33.9307 15.2097 33.9307H18.2399C18.3534 33.9307 18.4654 33.9568 18.5672 34.007L18.6309 34.0384C18.6846 34.065 18.732 34.1028 18.7698 34.1494C18.8297 34.2234 18.8625 34.3157 18.8625 34.411V36.726C18.8625 36.8579 18.823 36.9867 18.7492 37.096L18.7475 37.0985C18.7242 37.133 18.6975 37.1651 18.6679 37.1944L18.6627 37.1995C18.5968 37.2646 18.5167 37.3135 18.4288 37.3424C18.3683 37.3623 18.305 37.3724 18.2414 37.3724H16.05L15.2121 37.3418C15.0981 37.3376 14.9879 37.3004 14.8946 37.2347L14.8788 37.2236C14.8106 37.1755 14.7553 37.1115 14.7176 37.0371C14.6814 36.9656 14.6625 36.8866 14.6625 36.8064V34.5227C14.6625 34.4255 14.6854 34.3295 14.7294 34.2428L14.7327 34.2362C14.7607 34.1809 14.7975 34.1305 14.8416 34.087L14.8507 34.078C14.8997 34.0296 14.958 33.9916 15.022 33.9664Z" fill="#F4F5FF"/>
<path d="M22.4625 33.8936L23.3018 33.9242C23.4151 33.9284 23.525 33.9635 23.6197 34.0258L23.6394 34.0387C23.6795 34.0652 23.7154 34.0976 23.7456 34.1349C23.8131 34.2182 23.85 34.3221 23.85 34.4293V36.7043C23.85 36.8724 23.7884 37.0347 23.6769 37.1605L23.6635 37.1756C23.6133 37.2322 23.5526 37.2785 23.4848 37.312C23.4043 37.3517 23.3158 37.3723 23.2261 37.3723H20.3232C20.2257 37.3723 20.1295 37.3499 20.042 37.3067C19.9811 37.2766 19.9253 37.2369 19.8769 37.1892L19.7864 37.0999C19.7706 37.0842 19.7573 37.0661 19.7473 37.0462C19.7326 37.0173 19.725 36.9853 19.725 36.9529V34.452C19.725 34.3534 19.7545 34.257 19.8097 34.1752C19.8526 34.1117 19.9097 34.059 19.9765 34.0213L20.0013 34.0073C20.0907 33.957 20.1912 33.9297 20.2937 33.9281L22.4625 33.8936Z" fill="#F4F5FF"/>
<path d="M17.8221 30.1142C17.9145 30.0686 18.0161 30.0449 18.1191 30.0449H21.0939C21.2044 30.0449 21.3131 30.0735 21.4094 30.1278L21.4531 30.1524C21.5005 30.1792 21.542 30.2153 21.575 30.2587C21.616 30.3127 21.6426 30.3762 21.6523 30.4433L21.6668 30.5436C21.6723 30.5812 21.675 30.6191 21.675 30.6571V32.806C21.675 32.9367 21.6405 33.0651 21.575 33.1783L21.561 33.2025C21.5371 33.2437 21.5078 33.2816 21.4739 33.315L21.4612 33.3276C21.429 33.3594 21.3918 33.3859 21.3511 33.4059C21.2928 33.4347 21.2287 33.4497 21.1637 33.4497H18.0427C17.9412 33.4497 17.8418 33.4215 17.7555 33.3682L17.7246 33.3492C17.636 33.2945 17.5693 33.2107 17.536 33.1121C17.5204 33.0661 17.5125 33.0178 17.5125 32.9692V30.5586C17.5125 30.465 17.5405 30.3736 17.5929 30.296C17.6385 30.2285 17.701 30.174 17.774 30.1379L17.8221 30.1142Z" fill="#F4F5FF"/>
<path d="M16.95 1.06738H17.6625L18.1125 1.21542L18.45 1.43746L18.7125 1.65951V1.73353H18.7875L19.0125 2.10361L19.1625 2.69574V3.13984L19.05 3.54693L18.9375 3.76898L18.6375 4.17607L18.1875 4.62017L18 4.99025L17.9625 5.84144L17.925 5.87845L16.4625 5.91545L16.3875 4.99025L16.2 4.62017L16.0125 4.39812L15.825 4.25009L15.4875 3.76898L15.3 3.32488L15.2625 2.76976L15.3375 2.36267L15.6375 1.80755L15.975 1.47447L16.3875 1.21542L16.7625 1.10439L16.95 1.06738Z" fill="#F4F5FF"/>
<path d="M25.65 12.6509H27.375L27.4875 13.4651L27.7125 14.9454L27.9 16.2777L28.0875 17.4989L28.2375 18.4242L28.35 19.2383V19.5344L27.2625 19.5714H26.5875L26.55 19.5344L26.025 15.9816L25.7625 14.1312L25.575 12.8729V12.6879L25.65 12.6509Z" fill="#1B1919"/>
<path d="M33.6375 29.6748L33.7875 29.7488L34.35 30.3039L34.6125 30.6L35.2875 31.2662L34.8375 31.7103L34.5 32.1173L34.05 32.7835L33.7125 33.5237L33.5625 34.0048L33.4125 34.7449L33.375 35.226L33.3375 35.3L33.225 35.3371H31.2375L31.1625 35.3V34.7079L31.3125 33.6347L31.575 32.7095L31.9125 31.9323L32.25 31.3032L32.7375 30.637L33.075 30.2299L33.525 29.7488L33.6375 29.6748Z" fill="#F03745"/>
<path d="M26.8875 9.57935L26.9625 9.65336L27.15 10.9116H32.2875L40.95 10.8746L41.025 9.87541H41.0625V10.4675L41.025 11.5038L40.8375 11.7258L40.7625 11.7628H27.2625L27.1875 11.5778L27.1125 10.9857L27 10.5416L26.8875 9.72738V9.57935Z" fill="#E1E7E9"/>
<path d="M38.775 27.6763H39.15V27.7133L38.925 27.7503L38.9625 27.8613V29.9708L38.925 30.0078L37.8375 30.1188L37.05 30.3409L36.375 30.6369L35.775 30.97L35.3625 31.3031L35.2125 31.3771L35.25 31.2661L34.35 30.3779L34.0875 30.0818L33.7875 29.8227L33.675 29.6747L34.125 29.2676L34.8 28.8235L35.4 28.4904L36.1875 28.1574L36.9 27.9353L37.875 27.7503L38.775 27.6763Z" fill="#AAE69A"/>
<path d="M44.7 30.2668L44.8875 30.3039L45.1875 30.6739L45.525 31.155L45.975 32.0062L46.3125 32.8574L46.5375 33.7086L46.6125 34.1527L46.6875 35.2629L46.65 35.448L46.6125 35.337H44.5125L44.4 35.2259L44.2875 34.3377L44.1375 33.7086L43.8375 32.9684L43.5 32.4133L43.125 31.9322L43.05 31.8582L43.725 31.1921L44.025 30.933L44.55 30.4149H44.625L44.7 30.2668Z" fill="#5F68D2"/>
<path d="M32.5125 6.02661L32.7375 6.06362L34.0875 6.58173L34.8375 6.8778L36.1875 7.43292L36.225 9.65341L36.1125 9.69042L35.3625 9.39435L33.45 8.6912L32.5125 8.32112V6.02661Z" fill="#929AF2"/>
<path d="M39.7125 6.13745H39.825V8.39495L39.525 8.50597L37.0875 9.39417L36.1875 9.72724L36.1125 9.69024L36.1875 9.5422V7.43274L36.1125 7.39573L36.5625 7.32171L37.425 6.98864L39.0375 6.39651L39.7125 6.13745Z" fill="#5F68D2"/>
<path d="M19.95 9.57935H25.125L25.275 10.6896V10.9486H19.7625V9.80139L19.875 9.61635L19.95 9.57935Z" fill="#FBFCFA"/>
<path d="M43.05 31.8953L43.2 31.9693L43.6125 32.5244L43.575 32.5984H43.5375L43.5 32.6724H43.425L43.0875 32.9315V33.0055H43.0125L42.975 33.0795L42.8625 33.2276L42.75 33.2646L42.6 33.4496H42.525V33.5236H42.45L42.375 33.7087L42.225 33.7457L42.15 33.9307L42.1125 34.0047L42 34.0417L41.925 34.1528H41.85L41.8125 34.3008L41.7375 34.4488H41.6625L41.625 34.5599H41.55V34.6339L41.4 34.6709L41.3625 34.7819L41.2125 34.8189L41.175 34.9299L40.9875 34.9669V35.115L40.875 35.189L40.8375 35.263H40.7625V35.4851L40.6875 35.6701L40.575 35.9662L40.35 36.2622L40.125 36.4473L39.975 36.4843L39.9375 36.5583L39.5625 36.7063H39.1125L39 36.6323H38.7L38.325 36.4843V36.4103L38.1 36.3733L37.7625 36.0772V35.9292L37.9125 36.0032L38.175 36.2252L38.5875 36.3733H39.1125L39.4875 36.2622L39.825 36.0402L40.0875 35.7071L40.2 35.411V34.6709L42.5625 32.3394H42.6375V32.2653H42.7125V32.1913L43.0125 31.9323L43.05 31.8953Z" fill="#DFE6E6"/>
<path d="M20.0625 9.54224H27.3V9.57924H26.8875L27.0375 10.5415L27.15 10.9856L27.2625 11.7627H25.425L25.2 10.4304L25.125 9.80129V9.57924H20.0625V9.54224Z" fill="#DEE6E5"/>
<path d="M26.85 9.54224H27.3V9.57924H26.8875L27.0375 10.5415L27.15 10.9856L27.2625 11.7627H25.425L25.3125 11.0596L25.35 10.8745H26.025L26.775 10.8375L26.7375 10.7635L27 10.7265L26.9625 10.6525L26.85 10.6895V10.6155L26.7375 10.5785L26.7 10.3564V10.2084L26.625 10.1714V10.1344L26.475 9.98633V9.87531H26.4V9.76429L26.325 9.69027L26.4375 9.65326L25.6875 9.61625V9.57924L26.85 9.54224Z" fill="#AAE49D"/>
<path d="M16.125 7.06274H18.225L18.3 7.13676L18.2625 7.39582L18 7.69188L17.6625 7.91393L17.3625 7.98795H16.9875L16.65 7.91393L16.3125 7.69188L16.0875 7.39582V7.09975L16.125 7.06274Z" fill="#F0ACB1"/>
<path d="M38.775 34.5227H39.075L39.3 34.6707L39.45 34.8928L39.4875 35.1518L39.375 35.4479L39.1125 35.67L38.8125 35.707L38.5125 35.5589L38.3625 35.4109L38.325 35.2999V34.9668L38.4375 34.7448L38.6625 34.5597L38.775 34.5227Z" fill="#1B1919"/>
<path d="M39 9.54224H40.425V9.57924L39.2625 9.65326L39.1125 9.72728L38.85 9.8383H38.7L38.6625 9.91232L38.4375 10.0233L38.175 10.0604V10.1344L37.8375 10.2824L37.575 10.3934L37.0875 10.5415L36.9375 10.5785L36.825 10.6155L36.375 10.6895H36.15H36.1125L35.8875 10.6155L35.85 10.5415L35.55 10.4304L35.5125 10.3564L35.8875 10.4674L36 10.5044H36.375L37.3125 10.1714L38.2875 9.80129L39 9.54224Z" fill="#D8E5DE"/>
<path d="M26.85 9.54224H27.3V9.57924H26.8875L27.0375 10.5415L27.1125 10.9485H25.35L25.3125 11.0596L25.35 10.8745H26.025L26.775 10.8375L26.7375 10.7635L27 10.7265L26.9625 10.6525L26.85 10.6895V10.6155L26.7375 10.5785L26.7 10.3564V10.2084L26.625 10.1714V10.1344L26.475 9.98633V9.87531H26.4V9.76429L26.325 9.69027L26.4375 9.65326L25.6875 9.61625V9.57924L26.85 9.54224Z" fill="#ADC2CC"/>
<path d="M42.525 7.13672H42.75L42.8625 7.43278L42.9 7.69184V8.09893L42.7875 8.20996H42.45L42.3 8.06192V7.72885L42.4125 7.24774L42.525 7.13672Z" fill="#DED99A"/>
<path d="M34.5375 32.0432V32.1542L34.3875 32.3763L34.275 32.5983L34.1625 32.6353L34.0875 32.8204L33.7875 33.4865L33.5625 34.2267L33.45 34.8558L33.4125 35.2629L33.3375 35.2999L33.375 34.7448L33.5625 33.8566L33.7875 33.2645L34.0875 32.6724L34.4625 32.1172L34.5375 32.0432Z" fill="#AAE79A"/>
<path d="M20.1375 33.9307H21.6375V33.9677L21.4125 34.0047L21.4875 34.0787L21.375 34.1157L21.1125 34.0787V34.0047H20.5875L20.55 34.1157L20.3625 34.0787L20.1375 34.1157L19.9875 34.0047L20.1375 33.9307Z" fill="#E1E7E9"/>
<path d="M27 10.6895L27.075 10.7635L27.1125 10.9485H25.35L25.3125 11.0595L25.35 10.8745H26.025L26.775 10.8375L26.7375 10.7635L27 10.6895Z" fill="#ADC1CE"/>
<path d="M14.7 34.2637L14.775 34.3007L14.7375 35.3369L14.775 35.633L14.8875 35.67L14.85 35.781H14.775L14.7375 36.4842L14.7 36.6692H14.6625V34.3747L14.7 34.2637Z" fill="#CCE7CB"/>
<path d="M37.7625 35.9292L37.9125 36.0032L38.175 36.2253L38.625 36.4103L38.55 36.5213L38.325 36.4843V36.4103L38.1 36.3733L37.7625 36.0772V35.9292Z" fill="#D7E2E1"/>
<path d="M41.6625 8.32104L41.775 8.46908L42 8.72813L42.1875 8.87617L41.85 8.83916L41.6625 8.61711L41.625 8.46908L41.6625 8.32104Z" fill="#DAE7DF"/>
<path d="M19.725 35.0039L19.8 35.0409L19.7625 35.337H19.8375L19.875 35.263L19.95 35.448H19.8L19.7625 36.4472H19.725V35.0039Z" fill="#CADCD5"/>
<path d="M20.5125 30.0818H20.85V30.1558H20.5125L20.5875 30.3408L20.475 30.3779V30.4889H20.4V30.3408L20.325 30.3038L20.4 30.1188L20.5125 30.0818Z" fill="#FCFDFB"/>
<path d="M35.1375 31.3772L35.2125 31.4142L34.9875 31.7103L34.6125 32.0433V31.9323L35.1375 31.3772Z" fill="#BDE8B4"/>
<path d="M17.4375 34.1528L17.7375 34.1898L17.85 34.2639L17.8125 34.4119H17.7L17.55 34.3009L17.3625 34.2639L17.4375 34.1528Z" fill="#FCFDFB"/>
<path d="M20.1 30.0818H20.5125L20.4 30.1558L20.2125 30.2298L20.0625 30.3038L19.9125 30.2668V30.1928H19.9875V30.1188L20.1 30.0818Z" fill="#EFF3F2"/>
<path d="M14.7 35.6331L14.8875 35.6701L14.85 35.7811H14.775L14.7375 36.4842L14.7 36.6693H14.6625L14.7 35.6331Z" fill="#D7E7DB"/>
<path d="M17.625 34.0046H18.1125L18.15 34.1527L18 34.1157L17.775 34.1527L17.5875 34.0787L17.625 34.0046Z" fill="#FCFDFB"/>
<path d="M25.2375 10.0603L25.35 10.1713L25.3125 10.2824H25.3875L25.425 10.3934L25.35 10.4674L25.3875 10.7264L25.35 10.8375L25.3125 10.8005L25.2375 10.3564V10.0603Z" fill="#ADC1CE"/>
<path d="M20.2125 36.5952L20.325 36.6322L20.3625 36.8543L20.2875 37.0023L20.175 36.9283V36.7432V36.6322L20.2125 36.5952Z" fill="#E1E7E9"/>
<path d="M22.6125 34.1897L22.8 34.2267L22.8375 34.3377L22.7625 34.4117H22.575L22.5375 34.2267L22.6125 34.1897Z" fill="#FCFDFB"/>
<path d="M22.65 29.1567L22.725 29.3048L22.7625 30.267H22.725L22.65 29.9339V29.1567Z" fill="#FBFCFA"/>
<path d="M17.8875 35.7441L18.075 35.7811V35.9292L17.925 35.9662L17.85 35.7811L17.8875 35.7441Z" fill="#FCFDFB"/>
<path d="M34.5375 32.0432V32.1542L34.3875 32.3763L34.275 32.5983L34.2 32.6353L34.2375 32.4503L34.5 32.0802L34.5375 32.0432Z" fill="#B9E7B0"/>
<path d="M20.325 36.4102L20.5125 36.4472L20.55 36.5952H20.4V36.5212H20.2125L20.325 36.4102Z" fill="#E1E7E9"/>
<path d="M25.415 12.0525L25.0342 9.59497V8.91553H26.8359L27.3486 12.0525H25.415Z" fill="#1B1919"/>
</g>
<defs>
<clipPath id="clip0_475_7773">
<rect width="60" height="38" fill="white"/>
</clipPath>
</defs>
</svg>
