<svg width="459" height="540" viewBox="0 0 459 540" fill="none" xmlns="http://www.w3.org/2000/svg">
<g filter="url(#filter0_d_548_3458)">
<path d="M435.4 509.4C435.4 513.818 431.818 517.4 427.4 517.4H31.4C26.9817 517.4 23.4 513.818 23.4 509.4V24.3999C25.6843 26.8661 28.4491 29.2958 31.69 31.6724C42.4445 39.5585 58.2072 46.7245 78.0787 52.7603C97.9504 58.796 121.542 63.5835 147.505 66.8501C173.469 70.1167 201.297 71.7983 229.4 71.7983C257.503 71.7983 285.331 70.1167 311.295 66.8501C337.258 63.5835 360.85 58.796 380.721 52.7603C400.593 46.7245 416.356 39.5585 427.11 31.6724C430.351 29.2958 433.116 26.8661 435.4 24.3999V509.4Z" fill="white"/>
</g>
<defs>
<filter id="filter0_d_548_3458" x="-5.72205e-06" y="-9.72748e-05" width="458.8" height="539.8" filterUnits="userSpaceOnUse" color-interpolation-filters="sRGB">
<feFlood flood-opacity="0" result="BackgroundImageFix"/>
<feColorMatrix in="SourceAlpha" type="matrix" values="0 0 0 0 0 0 0 0 0 0 0 0 0 0 0 0 0 0 127 0" result="hardAlpha"/>
<feOffset dy="-1"/>
<feGaussianBlur stdDeviation="11.7"/>
<feComposite in2="hardAlpha" operator="out"/>
<feColorMatrix type="matrix" values="0 0 0 0 1 0 0 0 0 0.751492 0 0 0 0 0.613432 0 0 0 1 0"/>
<feBlend mode="normal" in2="BackgroundImageFix" result="effect1_dropShadow_548_3458"/>
<feBlend mode="normal" in="SourceGraphic" in2="effect1_dropShadow_548_3458" result="shape"/>
</filter>
</defs>
</svg>
